#!OML:ASF E:\pregnant2\Project 1\Capture day 1\Session 1\pregnant2.ASF
:FULLY-SPECIFIED
:DEGREES
1525
root 4.80704 17.2656 13.0829 -327.723 -21.7546 0.408969
lowerback -17.3918 -0.996625 -3.48112
upperback -18.7887 -1.41867 0.132435
thorax -11.0314 -0.459812 2.00813
lowerneck -3.59535 -13.586 -21.0677
upperneck 36.108 -23.4037 13.2793
head 18.6774 -11.7182 5.02028
rclavicle -3.82164e-014 -2.72335e-014
rhumerus -54.3147 39.4875 -97.8921
rradius 38.0668
rwrist 28.5471
rhand -9.61918 -4.57296
rfingers 7.12502
rthumb 16.3503 -33.9037
lclavicle -3.82164e-014 -2.72335e-014
lhumerus -51.8308 -11.5977 82.1115
lradius 61.3541
lwrist 5.31427
lhand -7.98335 29.2
lfingers 7.12502
lthumb 17.9249 58.3939
rfemur -48.3652 17.6995 7.33582
rtibia 32.1699
rfoot -15.8635 -21.0432
rtoes 1.46574
lfemur -40.8055 -8.81231 -20.2402
ltibia 28.4734
lfoot -11.746 20.4149
ltoes -17.3927
1526
root 4.79545 17.2667 13.0852 -327.735 -21.6825 0.379836
lowerback -17.4217 -1.02818 -3.57388
upperback -18.7838 -1.44886 0.1386
thorax -11.0073 -0.462939 2.06327
lowerneck -3.20122 -13.7275 -21.2106
upperneck 36.1656 -23.8954 13.5985
head 18.8607 -11.9397 5.09286
rclavicle -1.70955e-014 -1.98785e-016
rhumerus -54.1098 39.4408 -97.6655
rradius 37.7044
rwrist 28.8603
rhand -9.2538 -4.3964
rfingers 7.12502
rthumb 16.7021 -33.6979
lclavicle -1.70955e-014 -1.98785e-016
lhumerus -51.8706 -11.7519 82.5154
lradius 61.5467
lwrist 4.38327
lhand -6.252 29.1119
lfingers 7.12502
lthumb 19.5901 58.1449
rfemur -48.2846 17.686 7.45228
rtibia 32.1425
rfoot -15.8682 -21.0395
rtoes 1.43681
lfemur -40.7568 -8.84596 -20.1497
ltibia 28.4655
lfoot -11.7638 20.4494
ltoes -17.4368
1527
root 4.78445 17.267 13.0873 -327.775 -21.6362 0.358766
lowerback -17.4161 -1.06649 -3.69542
upperback -18.7713 -1.4852 0.165707
thorax -10.9918 -0.46366 2.15754
lowerneck -2.88878 -13.8789 -21.3549
upperneck 36.2794 -24.3851 13.8689
head 19.0953 -12.1598 5.13747
rclavicle -4.29375e-014 -1.13307e-014
rhumerus -54.0012 39.503 -97.4964
rradius 37.454
rwrist 29.0916
rhand -8.82049 -4.25055
rfingers 7.12502
rthumb 17.1192 -33.5163
lclavicle -4.29375e-014 -1.13307e-014
lhumerus -51.9748 -11.8528 82.9173
lradius 61.7361
lwrist 3.28417
lhand -5.25829 28.3002
lfingers 7.12502
lthumb 20.5452 57.233
rfemur -48.1789 17.6345 7.5938
rtibia 32.1149
rfoot -15.8327 -20.9849
rtoes 1.44897
lfemur -40.6823 -8.87438 -20.0837
ltibia 28.4644
lfoot -11.7601 20.4872
ltoes -17.4791
1528
root 4.77345 17.268 13.0892 -327.838 -21.5596 0.357975
lowerback -17.3964 -1.13775 -3.83325
upperback -18.7473 -1.56232 0.217124
thorax -10.9659 -0.481318 2.28451
lowerneck -2.56326 -14.0141 -21.5533
upperneck 36.368 -24.8468 14.1526
head 19.3249 -12.376 5.20317
rclavicle -2.48481e-014 -2.66371e-014
rhumerus -53.9162 39.6742 -97.3739
rradius 37.2837
rwrist 29.217
rhand -8.30136 -4.18719
rfingers 7.12502
rthumb 17.6188 -33.4089
lclavicle -2.48481e-014 -2.66371e-014
lhumerus -52.048 -11.9402 83.3098
lradius 61.8854
lwrist 2.2031
lhand -4.2464 27.651
lfingers 7.12502
lthumb 21.5173 56.4758
rfemur -48.0467 17.62 7.69916
rtibia 32.0928
rfoot -15.8974 -20.987
rtoes 1.52823
lfemur -40.5946 -8.92102 -20.0258
ltibia 28.4606
lfoot -11.7659 20.5049
ltoes -17.5549
1529
root 4.76228 17.2683 13.0901 -327.88 -21.4693 0.330212
lowerback -17.36 -1.20814 -3.96397
upperback -18.7393 -1.63923 0.289585
thorax -10.9683 -0.49724 2.43141
lowerneck -2.19148 -14.0866 -21.7805
upperneck 36.4288 -25.2289 14.4887
head 19.5288 -12.565 5.32478
rclavicle 2.77802e-014 1.82882e-014
rhumerus -53.9715 39.9585 -97.3585
rradius 37.2057
rwrist 29.1956
rhand -8.09363 -4.16406
rfingers 7.12502
rthumb 17.8187 -33.3677
lclavicle 2.77802e-014 1.82882e-014
lhumerus -52.1811 -11.9981 83.697
lradius 62.0872
lwrist 1.13259
lhand -3.21292 26.9935
lfingers 7.12502
lthumb 22.5096 55.7015
rfemur -47.9223 17.5698 7.85669
rtibia 32.0653
rfoot -15.883 -20.9621
rtoes 1.40785
lfemur -40.5244 -8.95369 -19.9402
ltibia 28.4622
lfoot -11.776 20.5169
ltoes -17.5952
1530
root 4.75113 17.2688 13.0923 -327.911 -21.4231 0.312264
lowerback -17.3597 -1.27672 -4.09888
upperback -18.7228 -1.71258 0.353248
thorax -10.9406 -0.512768 2.57032
lowerneck -1.83668 -14.2011 -21.9378
upperneck 36.4693 -25.6524 14.7511
head 19.708 -12.7657 5.38542
rclavicle 2.07233e-014 3.18055e-015
rhumerus -53.9349 40.0744 -97.1881
rradius 37.2469
rwrist 29.3823
rhand -7.97595 -4.1604
rfingers 7.12502
rthumb 17.932 -33.3537
lclavicle 2.07233e-014 3.18055e-015
lhumerus -52.3157 -12.0339 84.032
lradius 62.2923
lwrist 0.113886
lhand -1.88106 26.4682
lfingers 7.12502
lthumb 23.7875 55.0157
rfemur -47.8287 17.5242 7.98136
rtibia 32.0379
rfoot -15.8999 -20.9006
rtoes 1.52074
lfemur -40.46 -8.97123 -19.8767
ltibia 28.4565
lfoot -11.7906 20.5402
ltoes -17.6044
1531
root 4.74035 17.27 13.0938 -327.923 -21.3319 0.286024
lowerback -17.3782 -1.35945 -4.20901
upperback -18.7071 -1.80515 0.431764
thorax -10.9015 -0.540218 2.70979
lowerneck -1.51199 -14.3153 -22.0327
upperneck 36.524 -26.0479 14.9403
head 19.8657 -12.9504 5.4071
rclavicle 3.78188e-014 1.94809e-014
rhumerus -54.0011 40.32 -97.1209
rradius 37.3444
rwrist 29.3919
rhand -8.22184 -4.15206
rfingers 7.12502
rthumb 17.6954 -33.3669
lclavicle 3.78188e-014 1.94809e-014
lhumerus -52.4935 -12.0845 84.3964
lradius 62.4625
lwrist -0.929676
lhand -1.14846 25.8251
lfingers 7.12502
lthumb 24.4899 54.2794
rfemur -47.7391 17.4845 8.11292
rtibia 32.0099
rfoot -15.884 -20.8987
rtoes 1.40479
lfemur -40.4219 -9.01292 -19.7866
ltibia 28.4546
lfoot -11.8144 20.5575
ltoes -17.5979
1532
root 4.729 17.2707 13.0947 -327.956 -21.2549 0.270105
lowerback -17.3554 -1.42126 -4.35313
upperback -18.679 -1.86856 0.48568
thorax -10.8716 -0.550122 2.84395
lowerneck -1.3418 -14.4701 -22.0669
upperneck 36.7483 -26.4692 14.9802
head 20.133 -13.1365 5.33148
rclavicle 3.99557e-014 1.70955e-014
rhumerus -54.1153 40.6101 -97.1282
rradius 37.4869
rwrist 29.2281
rhand -8.31218 -4.18766
rfingers 7.12502
rthumb 17.6084 -33.4103
lclavicle 3.99557e-014 1.70955e-014
lhumerus -52.6423 -12.1343 84.7122
lradius 62.6913
lwrist -1.71115
lhand -0.401367 25.2862
lfingers 7.12502
lthumb 25.2059 53.6417
rfemur -47.6416 17.4595 8.22796
rtibia 31.9823
rfoot -15.9363 -20.8814
rtoes 1.60587
lfemur -40.3625 -9.0899 -19.6887
ltibia 28.4432
lfoot -11.8075 20.6158
ltoes -17.6623
1533
root 4.71882 17.2711 13.0947 -328.008 -21.1725 0.270897
lowerback -17.2917 -1.50355 -4.49935
upperback -18.6701 -1.96164 0.558635
thorax -10.8845 -0.572294 2.99951
lowerneck -1.35569 -14.6359 -22.3039
upperneck 36.8997 -26.7709 14.9244
head 20.6982 -13.3546 5.43517
rclavicle -4.76089e-014 -2.26615e-014
rhumerus -54.2578 40.8589 -97.0885
rradius 37.7278
rwrist 29.1446
rhand -8.58121 -4.31505
rfingers 7.12502
rthumb 17.3495 -33.5607
lclavicle -4.76089e-014 -2.26615e-014
lhumerus -52.8731 -12.1823 85.0641
lradius 62.8903
lwrist -2.36858
lhand 0.0298389 24.8397
lfingers 7.12502
lthumb 25.619 53.1364
rfemur -47.526 17.4076 8.34373
rtibia 31.9539
rfoot -15.9296 -20.8617
rtoes 1.5904
lfemur -40.2949 -9.13904 -19.6268
ltibia 28.4319
lfoot -11.8225 20.6173
ltoes -17.6491
1534
root 4.70874 17.2719 13.0966 -328.04 -21.065 0.270584
lowerback -17.2914 -1.58813 -4.62101
upperback -18.6462 -2.05573 0.633242
thorax -10.8437 -0.599522 3.14105
lowerneck -1.03203 -14.7349 -22.3953
upperneck 36.933 -27.1228 15.0782
head 20.8399 -13.5252 5.45274
rclavicle 1.2921e-014 1.98785e-014
rhumerus -54.3749 41.0722 -96.9922
rradius 38.017
rwrist 29.0725
rhand -9.51606 -4.17697
rfingers 7.12502
rthumb 16.4496 -33.4996
lclavicle 1.2921e-014 1.98785e-014
lhumerus -53.0621 -12.1906 85.3597
lradius 63.0949
lwrist -2.74501
lhand 0.597603 24.5308
lfingers 7.12502
lthumb 26.1626 52.748
rfemur -47.4318 17.3729 8.44385
rtibia 31.9423
rfoot -15.9586 -20.8958
rtoes 1.56446
lfemur -40.2465 -9.17289 -19.5688
ltibia 28.4237
lfoot -11.8291 20.5972
ltoes -17.7115
